<svg width="653" height="550" viewBox="0 0 653 550" fill="none" xmlns="http://www.w3.org/2000/svg">
<path fill-rule="evenodd" clip-rule="evenodd" d="M332.327 125.545L326.476 149.702L321.17 152.817L303.794 152.939L304.205 162.141L287.919 162.253L288.331 171.455L272.045 171.566L272.456 180.768L256.17 180.879L256.582 190.081L240.307 190.192L240.741 200.017L225.267 209.097C236.169 224.586 230.796 243.068 209.059 255.819C191.127 266.356 166.242 270.507 142.914 268.237C136.918 267.658 131.033 266.645 125.393 265.221C117.406 263.185 109.908 260.303 103.334 256.564C74.0213 239.907 73.8211 212.569 102.9 195.5C126.806 181.48 163.027 178.776 191.449 187.511L303.571 121.706L332.327 125.545ZM145.684 231.707C138.042 227.379 125.727 227.468 118.151 231.907C110.587 236.347 110.631 243.468 118.263 247.796C125.894 252.136 138.22 252.047 145.795 247.607C153.36 243.168 153.315 236.046 145.684 231.707Z" fill="#C4D9E8"/>
<path d="M364.91 537.931L213.698 450.974C203.508 445.088 204.787 434.818 216.546 428.03L363.308 343.277C375.067 336.489 392.843 335.755 403.033 341.63L554.246 428.598C564.425 434.473 563.145 444.743 551.387 451.53L404.624 536.284C392.877 543.083 375.089 543.817 364.91 537.931Z" fill="#C4D9E8"/>
<path d="M542.187 340.773L516.045 325.674L612.437 270.006C616.986 267.38 616.986 263.096 612.437 260.47L513.964 203.611C509.415 200.974 502.006 200.974 497.456 203.611L401.064 259.268L374.922 244.169L471.314 188.512C490.281 177.552 521.14 177.552 540.106 188.512L638.579 245.371C657.546 256.331 657.546 274.156 638.579 285.105L542.187 340.773Z" fill="#002E70"/>
<path d="M578.819 362.092V362.103C578.251 362.526 577.64 362.86 577.005 363.149L371.573 482.407L169.934 330.436L378.448 209.231L378.459 209.242C381.774 207.383 386.057 207.584 390.751 210.288L565.392 311.142C575.871 317.195 584.37 333.44 584.37 347.416C584.37 354.403 582.245 359.5 578.819 362.092Z" fill="#D4ECFF"/>
<path d="M345.086 462.446L579.253 327.209C582.423 333.563 584.37 340.739 584.37 347.416C584.37 354.403 582.245 359.499 578.819 362.092V362.103C578.252 362.526 577.64 362.86 577.006 363.149L371.573 482.407L345.086 462.446Z" fill="#173D7A"/>
<path d="M358.447 481.873L183.807 381.019C173.316 374.966 164.829 358.732 164.829 344.745C164.829 330.77 173.316 324.349 183.807 330.403L358.447 431.246C368.926 437.299 377.425 453.544 377.425 467.52C377.425 481.506 368.926 487.926 358.447 481.873Z" fill="#002E70"/>
<path d="M332.282 447.858L311.291 435.741C309.199 434.539 307.508 431.301 307.508 428.52C307.508 425.727 309.199 424.447 311.291 425.66L332.282 437.766C334.374 438.979 336.064 442.217 336.064 444.999C336.064 447.791 334.374 449.071 332.282 447.858Z" fill="white"/>
<path d="M309.945 13.3078L335.787 16.7572L338.612 7.80002L338.712 17.1466L332.85 41.3032L327.555 44.4187L310.479 44.5411L310.579 53.743L294.604 53.8543L294.705 63.0563L278.741 63.1675L278.83 72.3695L262.867 72.4808L262.967 81.6827L246.681 81.794L246.714 82.4616L247.026 82.2725L247.115 91.6191L210.505 113.105L174.629 92.7206L309.945 13.3078Z" fill="#396CAA"/>
<path d="M174.529 83.374L309.845 3.96118L338.613 7.79996L332.761 31.9565L327.455 35.072L310.068 35.1944L310.479 44.3964L294.193 44.5077L294.605 53.7096L278.33 53.8209L278.742 63.0229L262.456 63.1341L262.867 72.3361L246.581 72.4474L247.026 82.2724L210.405 103.758L174.529 83.374Z" fill="#D4ECFF"/>
<path d="M210.405 103.759L174.529 83.374L200.972 67.852C207.135 69.7436 212.942 72.147 218.159 75.1067C225.568 79.3238 231.107 84.2197 234.79 89.4493L210.405 103.759Z" fill="#396CAA"/>
<path d="M225.467 77.677L219.449 74.2499L333.784 7.1546L338.612 7.79997L337.633 11.8502L225.467 77.677Z" fill="#5793CE"/>
<path d="M87.9045 122.207L87.504 108.921L91.7647 117.89L87.9045 122.207Z" fill="#D3D0CF"/>
<path fill-rule="evenodd" clip-rule="evenodd" d="M109.575 91.0404C138.654 73.9717 185.999 73.6379 215.312 90.2949C224.823 95.7026 231.253 102.234 234.623 109.177L237.015 106.507L237.427 120.593L237.416 120.582C237.538 131.665 230.318 142.803 215.746 151.359C186.667 168.417 139.322 168.751 110.009 152.094C80.6966 135.437 80.4964 108.098 109.575 91.0404ZM124.827 127.437C117.262 131.876 117.307 138.997 124.938 143.337C132.569 147.665 144.895 147.576 152.471 143.137C160.035 138.697 159.991 131.576 152.359 127.247C144.728 122.908 132.402 122.997 124.827 127.437Z" fill="#396CAA"/>
<path fill-rule="evenodd" clip-rule="evenodd" d="M109.185 77.7549C138.264 60.6862 185.598 60.3635 214.91 77.0205C244.234 93.6775 244.423 121.005 215.344 138.074C186.265 155.143 138.931 155.476 109.608 138.819C80.2953 122.162 80.1061 94.8236 109.185 77.7549ZM124.436 114.151C116.861 118.602 116.916 125.712 124.548 130.051C132.179 134.391 144.505 134.302 152.069 129.862C159.645 125.411 159.589 118.301 151.958 113.962C144.327 109.622 132.001 109.711 124.436 114.151Z" fill="#F2F2F2"/>
<path d="M142.792 162.52C130.511 160.706 119.676 157.591 110.009 152.094C88.0942 139.643 82.4654 121.228 93.1558 105.594C97.739 110.768 102.344 115.976 106.972 121.194L120.255 131.732C117.918 135.682 119.465 140.221 124.938 143.337C130.022 146.219 137.152 147.098 143.604 146.085L142.792 162.52Z" fill="#5793CE"/>
<path fill-rule="evenodd" clip-rule="evenodd" d="M109.185 77.7549C138.264 60.6862 185.598 60.3635 214.91 77.0205C244.234 93.6775 244.423 121.005 215.344 138.074C197.401 148.6 172.516 152.761 149.199 150.492C143.203 149.913 137.307 148.9 131.667 147.465C123.68 145.44 116.193 142.558 109.608 138.819C80.2953 122.162 80.1061 94.8236 109.185 77.7549ZM124.436 114.151C116.861 118.602 116.916 125.712 124.548 130.051C132.179 134.391 144.505 134.302 152.069 129.862C159.645 125.411 159.589 118.301 151.958 113.962C144.327 109.622 132.001 109.711 124.436 114.151Z" fill="#D4ECFF"/>
<path d="M115.037 81.0819C140.912 65.9048 183.028 65.6043 209.104 80.4254C223.866 88.8151 230.318 100.242 228.449 111.336C228.304 101.567 221.763 91.8527 208.792 84.4867C182.717 69.6657 140.6 69.9661 114.725 85.1432C103.49 91.7415 97.1822 100.053 95.7583 108.565C95.6136 98.6736 102.021 88.7149 115.037 81.0819Z" fill="#396CAA"/>
<path fill-rule="evenodd" clip-rule="evenodd" d="M78.1259 229.415C72.853 229.415 67.9027 228.157 63.453 225.632C52.9517 219.668 47.1003 207.684 47.0002 191.884C46.7888 163.076 66.8459 127.77 91.6864 113.183C105.303 105.194 118.585 104.07 129.097 110.045C133.569 112.593 137.229 116.254 139.966 120.927C143.615 127.136 145.495 134.825 145.55 143.793C145.75 172.601 125.705 207.906 100.853 222.494C93.0102 227.089 85.2789 229.415 78.1259 229.415ZM114.402 116.844C109.118 116.844 103.211 118.68 97.0372 122.307C75.089 135.181 57.3792 166.359 57.5683 191.817C57.6461 203.678 61.5952 212.413 68.6703 216.441C75.7565 220.458 85.2788 219.378 95.5021 213.37C117.45 200.496 135.16 169.318 134.982 143.86C134.938 136.883 133.503 130.797 130.855 126.279C129.064 123.219 126.706 120.849 123.869 119.236C121.066 117.645 117.873 116.844 114.402 116.844Z" fill="#396CAA"/>
<path d="M124.547 130.051C132.179 134.391 144.504 134.302 152.069 129.862L149.076 145.351L128.196 140.233L124.547 130.051Z" fill="#D4ECFF"/>
<path d="M130.343 136.171L215.344 138.074C197.4 148.6 172.515 152.762 149.199 150.492C143.203 149.913 137.307 148.9 131.667 147.465C123.679 145.44 116.193 142.558 109.607 138.819L130.343 136.171Z" fill="#D4ECFF"/>
<path d="M140.789 162.509C134.448 161.674 127.05 159.404 122.556 157.835V144.795C128.841 146.987 134.993 148.567 141.012 149.546C153.838 159.905 153.76 164.222 140.789 162.509Z" fill="#396CAA"/>
<path d="M127.463 159.449C124.036 158.392 121.033 157.357 118.452 156.322C108.863 143.181 107.862 138.374 115.437 141.924C119.342 143.76 123.58 145.217 127.463 146.363V159.449Z" fill="#5793CE"/>
<path d="M340.693 375.533L303.504 399.523L285.405 396.585L329.624 375.2L340.693 375.533Z" fill="#5793CE"/>
<path d="M300.934 500.099C302.681 501.457 305.072 508.433 303.971 513.585C302.881 518.748 284.737 545.063 278.53 548.101C272.322 551.138 261.877 552.006 262.166 539.177C262.455 526.336 271.866 507.343 278.441 499.298C282.824 493.935 288.586 493.056 295.728 496.661C298.042 498.041 299.766 499.187 300.934 500.099Z" fill="#173D7A"/>
<path d="M298.064 494.08L298.565 505.173C298.665 507.532 297.486 509.78 295.428 510.948C293.559 512.016 290.845 512.829 287.163 512.239C279.097 510.937 278.374 508.634 277.796 497.529C277.418 490.141 284.17 488.984 298.064 494.08Z" fill="#5793CE"/>
<path d="M261.721 478.758C263.468 480.115 265.859 487.092 264.769 492.244C263.668 497.407 245.524 523.722 239.317 526.759C233.109 529.797 222.664 530.665 222.953 517.824C223.242 504.995 232.653 486.001 239.228 477.957C243.611 472.594 249.373 471.714 256.515 475.308C258.829 476.699 260.564 477.845 261.721 478.758Z" fill="#173D7A"/>
<path d="M258.863 472.727L259.352 483.832C259.463 486.191 258.273 488.438 256.215 489.607C254.346 490.664 251.632 491.487 247.95 490.886C239.884 489.595 239.161 487.292 238.583 476.188C238.205 468.788 244.957 467.642 258.863 472.727Z" fill="#5793CE"/>
<path d="M326.487 333.785L258.284 374.91L260.687 468.499C261.254 475.932 257.638 480.26 249.829 481.473C247.983 481.762 246.37 481.896 244.957 481.907C239.973 481.94 235.746 478.302 235.101 473.35L221.963 373.297C220.739 363.95 223.687 354.537 230.028 347.571L262.511 311.887L298.576 276.526C333.706 237.059 352.328 234.533 354.442 268.937C356.556 303.331 347.234 324.95 326.487 333.785Z" fill="#274F89"/>
<path d="M283.914 359.455L265.581 377.258L258.284 374.91C258.139 369.403 274.414 353.658 274.637 353.658L284.348 357.23L283.914 359.455Z" fill="#5793CE"/>
<path d="M327.388 380.974L325.052 367.7L379.105 329.168C390.93 334.909 387.982 338.881 386.08 342.676C382.843 349.151 367.714 360.1 340.693 375.533L327.388 380.974Z" fill="#5793CE"/>
<path d="M365.7 353.702L297.497 394.828L299.888 488.416C300.467 495.849 296.851 500.166 289.042 501.39C287.196 501.679 285.583 501.802 284.17 501.813C279.186 501.857 274.959 498.208 274.314 493.267L261.176 393.203C259.952 383.856 262.9 374.454 269.241 367.478L301.713 331.794L337.789 296.432C372.775 256.987 391.397 254.45 393.655 288.844C395.713 320.288 386.391 341.908 365.7 353.702Z" fill="#274F89"/>
<path d="M362.474 122.964C389.106 134.002 402.166 147.398 401.632 163.154C396.414 220.88 394.69 269.027 396.47 307.581C397.593 331.76 268.051 333.607 287.363 269.105C310.145 193.052 301.602 131.476 312.27 122.196C322.938 112.905 352.14 118.68 362.474 122.964Z" fill="#002E70"/>
<path d="M375.333 143.904C373.242 152.016 362.607 156.3 351.594 153.451C340.57 150.614 333.328 141.735 335.419 133.623C337.511 125.512 348.134 121.239 359.159 124.076C370.183 126.914 377.413 135.793 375.333 143.904Z" fill="#FFC2B0"/>
<path fill-rule="evenodd" clip-rule="evenodd" d="M358.336 156.233C355.999 156.233 353.563 155.933 351.116 155.309C345.398 153.83 340.425 150.781 337.11 146.719C333.662 142.502 332.405 137.673 333.573 133.145C335.92 124.021 347.612 119.125 359.637 122.218C365.355 123.698 370.328 126.747 373.643 130.808C377.091 135.036 378.348 139.854 377.18 144.383C375.311 151.649 367.513 156.233 358.336 156.233ZM352.317 125.1C344.908 125.1 338.701 128.549 337.266 134.102C336.421 137.417 337.411 141.045 340.069 144.305C342.873 147.743 347.133 150.336 352.073 151.604C362.051 154.163 371.651 150.514 373.476 143.426C374.332 140.11 373.342 136.483 370.683 133.223C367.88 129.784 363.62 127.192 358.68 125.923C356.522 125.367 354.375 125.1 352.317 125.1Z" fill="white"/>
<path d="M366.456 118.624C365.589 132.166 367.035 135.915 363.431 139.52C359.826 143.126 345.899 139.409 346.11 135.426C346.577 126.98 346.689 122.229 346.455 121.161C360.372 110.435 367.035 109.589 366.456 118.624Z" fill="#FFC2B0"/>
<path d="M366.456 118.624C364.164 126.991 357.39 132.789 346.11 136.004L346.366 124.588L366.456 118.624Z" fill="#EA9C92"/>
<path d="M377.18 86.701C381.429 103.158 371.54 119.937 355.098 124.188C338.656 128.438 321.881 118.546 317.632 102.101C313.382 85.655 323.26 68.8756 339.702 64.6252C356.144 60.3747 372.919 70.2554 377.18 86.701Z" fill="#FFC2B0"/>
<path d="M354.464 95.5357C343.173 100.365 333.629 102.813 325.808 102.868C317.999 102.924 314.951 99.6861 316.675 93.1323L351.472 88.1029L354.464 95.5357Z" fill="#EA9C92"/>
<path d="M303.704 61.7212C307.253 65.1037 311.213 64.8923 315.574 61.0869C321.803 54.7668 361.784 37.9652 377.525 69.1539C393.266 100.354 375.422 114.018 373.743 113.083C372.052 112.137 370.817 105.583 374.477 99.7307C378.137 93.8779 375.155 90.7179 370.695 90.9404C366.234 91.1518 362.485 100.676 360.193 100.154C359.27 99.9421 358.458 99.23 357.824 98.44C355.866 96.0366 353.04 94.412 350.003 93.7889C341.382 92.0531 332.149 93.266 322.315 97.4497C305.918 103.458 299.722 91.5524 303.704 61.7212Z" fill="#002E70"/>
<path d="M406.515 213.092L402.232 253.905C401.842 257.544 399.94 260.848 396.97 262.996L333.506 309.039L328.044 300.683L376.101 256.865C378.081 255.051 379.216 252.503 379.216 249.822V226.422L406.515 213.092Z" fill="#FFC2B0"/>
<path d="M398.249 151.448C407.961 166.069 414.635 192.618 418.251 231.106C401.653 236.48 388.638 237.638 379.215 234.589C369.793 231.54 376.134 203.834 398.249 151.448Z" fill="#002E70"/>
<path d="M376.558 232.942C372.842 231.607 370.428 228.046 370.517 224.096C370.74 214.516 372.753 199.55 376.558 179.177V232.942Z" fill="#002E70"/>
<path d="M364.087 337.401C364.12 338.403 363.419 339.471 361.984 340.294L309.077 370.838C306.53 372.307 302.692 372.462 300.5 371.194L222.786 326.319C221.752 325.718 221.273 324.906 221.318 324.071H221.307V317.673L227.736 318.519L276.316 290.468C278.853 289.01 282.702 288.844 284.893 290.112L353.463 329.713L364.087 331.115V337.401Z" fill="#173D7A"/>
<path d="M304.928 372.028C303.282 372.129 301.657 371.861 300.5 371.194L222.786 326.319C221.752 325.718 221.273 324.906 221.318 324.071H221.307V317.673L227.736 318.519L254.134 303.286H307.698L312.57 306.09L304.928 372.028Z" fill="#396CAA"/>
<path d="M224.166 327.109L222.786 326.319C221.752 325.718 221.273 324.906 221.318 324.071H221.307V317.673L224.166 318.052V327.109Z" fill="#5793CE"/>
<path d="M301.279 360.223H308.566V371.105C306.341 372.173 303.36 372.351 301.279 371.561V360.223Z" fill="#274F89"/>
<path d="M300.5 364.807L222.786 319.932C220.594 318.653 220.872 316.438 223.409 314.97L276.316 284.426C278.852 282.957 282.701 282.802 284.893 284.07L362.596 328.945C364.798 330.213 364.52 332.439 361.984 333.896L309.077 364.451C306.529 365.909 302.692 366.075 300.5 364.807Z" fill="white"/>
<path d="M299.188 357.997L234.567 320.689C232.742 319.632 232.976 317.785 235.079 316.572L263.434 300.616C265.548 299.403 268.741 299.269 270.565 300.326L335.175 337.635C337.01 338.692 336.777 340.539 334.663 341.752L306.319 357.708C304.205 358.921 301.012 359.054 299.188 357.997Z" fill="#D4ECFF"/>
<path d="M290.288 283.213C293.492 289.711 296.496 301.194 295.083 301.194C294.137 301.194 292.691 299.915 290.733 297.356L289.454 308.816C289.209 310.931 287.24 312.399 285.149 312.021C282.479 311.531 280.365 309.462 279.831 306.791L278.875 302.073C277.951 297.545 277.829 292.883 278.519 288.321L279.32 282.957C284.504 278.796 288.164 278.885 290.288 283.213Z" fill="#FFC2B0"/>
<path d="M305.662 197.725L297.33 214.226C295.35 218.132 294.193 222.394 293.914 226.755L290.288 283.213L279.319 282.957L274.347 219.556C274.191 217.598 274.291 215.628 274.625 213.692L280.321 181.536L305.662 197.725Z" fill="#FFC2B0"/>
<path d="M297.864 369.113L291.345 360.601L222.831 320.923C220.639 319.654 218.859 316.249 218.859 313.312L218.915 257.199L214.977 252.058L218.681 249.911V249.922C219.393 249.465 220.339 249.477 221.374 250.077L299.021 295.041C301.224 296.31 303.004 299.726 302.992 302.652L302.926 363.761C302.926 365.408 302.358 366.554 301.48 367.021L297.864 369.113Z" fill="#173D7A"/>
<path d="M250.486 336.934L245.613 334.119L218.893 287.698L218.915 257.199L214.977 252.058L218.681 249.911V249.922C219.393 249.465 220.339 249.477 221.374 250.077L299.021 295.041C300.189 295.72 301.224 296.989 301.947 298.468L250.486 336.934Z" fill="#396CAA"/>
<path d="M216.724 254.339L214.977 252.058L218.681 249.911V249.922C219.393 249.465 220.339 249.477 221.374 250.077L222.742 250.867L216.724 254.339Z" fill="#002E70"/>
<path d="M299.733 295.542C301.457 296.955 302.792 299.615 302.97 302.085L295.383 306.469L291.745 300.149L299.733 295.542Z" fill="#274F89"/>
<path d="M299.299 304.8L299.232 365.909C299.232 368.835 297.441 370.181 295.25 368.913L217.591 323.938C215.4 322.67 213.62 319.265 213.62 316.327L213.686 255.218C213.697 252.292 215.477 250.945 217.669 252.214L295.328 297.189C297.519 298.457 299.299 301.862 299.299 304.8Z" fill="#002E70"/>
<path d="M333.506 309.039L332.26 311.62C330.825 314.591 328.578 317.084 325.775 318.82L318.055 323.571C315.663 325.051 312.626 325.173 310.19 323.749C310.101 323.704 310.012 323.649 309.923 323.593C307.475 322.057 307.253 318.541 309.266 316.461L317.332 308.171C314.306 310.485 312.37 311.175 311.525 310.252C310.601 309.228 315.919 304.221 320.012 304.065C322.727 303.954 325.408 302.83 328.044 300.683L333.506 309.039Z" fill="#FFC2B0"/>
<path d="M306.441 209.086C289.954 204.324 278.341 195.867 271.599 183.739C279.542 164.066 293.37 143.515 313.071 122.073C325.141 184.852 322.927 213.848 306.441 209.086Z" fill="#002E70"/>
<path d="M294.382 204.257L305.662 160.906L300.878 207.183C298.565 206.282 296.384 205.314 294.382 204.257Z" fill="#002E70"/>
<path d="M342.984 117.723C342.405 120.849 340.27 121.906 336.587 120.883C332.894 119.87 329.79 117.378 327.265 113.406L335.197 115.586L342.984 117.723Z" fill="white"/>
<path fill-rule="evenodd" clip-rule="evenodd" d="M184.507 44.4965C172.237 44.4965 162.259 34.5157 162.259 22.2538C162.259 9.98084 172.237 0 184.507 0C196.766 0 206.745 9.98084 206.745 22.2538C206.745 34.5157 196.766 44.4965 184.507 44.4965ZM184.507 4.86246C174.918 4.86246 167.12 12.6624 167.12 22.2538C167.12 31.8341 174.918 39.6341 184.507 39.6341C194.085 39.6341 201.884 31.8341 201.884 22.2538C201.884 12.6624 194.085 4.86246 184.507 4.86246Z" fill="#D4ECFF"/>
<path fill-rule="evenodd" clip-rule="evenodd" d="M634.118 204.791C625.419 204.791 618.344 197.714 618.344 189.024C618.344 180.323 625.419 173.246 634.118 173.246C642.806 173.246 649.881 180.323 649.881 189.024C649.881 197.714 642.806 204.791 634.118 204.791ZM634.118 178.097C628.1 178.097 623.194 182.993 623.194 189.024C623.194 195.044 628.1 199.94 634.118 199.94C640.136 199.94 645.031 195.044 645.031 189.024C645.031 182.993 640.136 178.097 634.118 178.097Z" fill="#5793CE"/>
<path fill-rule="evenodd" clip-rule="evenodd" d="M117.027 489.774L106.314 467.998L128.085 457.294L138.797 479.069L117.027 489.774ZM112.811 470.212L119.241 483.286L132.301 476.855L125.882 463.792L112.811 470.212Z" fill="#5793CE"/>
<path fill-rule="evenodd" clip-rule="evenodd" d="M433.013 152.25L422.311 130.463L444.082 119.759L454.783 141.534L433.013 152.25ZM428.808 132.677L435.227 145.751L448.286 139.32L441.868 126.257L428.808 132.677Z" fill="#5793CE"/>
<path d="M92.7095 366.988L82.6977 371.906L77.7808 361.903L87.7926 356.974L92.7095 366.988Z" fill="#5793CE"/>
<path d="M73.5202 419.485V462.891C73.5202 464.749 72.8972 466.051 71.9294 466.641L71.9628 466.652L66.2449 469.945V464.949L10.4566 432.737C7.86461 431.246 5.76215 427.229 5.76215 423.769V381.253C4.78321 380.897 3.45941 380.407 1.79077 379.806L7.45306 376.535C7.44194 376.557 7.44193 376.568 7.44193 376.568C8.26513 376.123 9.31077 376.145 10.4566 376.813L68.8258 410.516C71.4177 412.007 73.5202 416.024 73.5202 419.485Z" fill="#5793CE"/>
<path d="M63.0525 469.767L4.69442 436.064C2.10246 434.562 0 430.545 0 427.084V383.689C0 380.229 2.10246 378.638 4.69442 380.129L63.0525 413.832C65.6556 415.334 67.758 419.351 67.758 422.812V466.218C67.758 469.678 65.6556 471.269 63.0525 469.767Z" fill="#D4ECFF"/>
<path d="M24.3175 421.109C24.3175 423.613 22.5599 424.637 20.3796 423.379C18.2103 422.122 16.4415 419.073 16.4415 416.558C16.4415 414.044 18.2103 413.031 20.3796 414.289C22.5599 415.535 24.3175 418.595 24.3175 421.109Z" fill="white"/>
<path d="M36.2538 427.997C36.2538 430.512 34.485 431.524 32.3158 430.267C30.1354 429.009 28.3778 425.961 28.3778 423.446C28.3778 420.931 30.1354 419.919 32.3158 421.176C34.485 422.433 36.2538 425.482 36.2538 427.997Z" fill="white"/>
<path d="M48.1791 434.884C48.1791 437.399 46.4214 438.412 44.2411 437.154C42.0718 435.897 40.3031 432.848 40.3031 430.334C40.3031 427.819 42.0718 426.806 44.2411 428.064C46.4214 429.321 48.1791 432.37 48.1791 434.884Z" fill="white"/>
</svg>
